<svg xmlns="http://www.w3.org/2000/svg" version="1.1" xmlns:xlink="http://www.w3.org/1999/xlink" width="24" height="24" x="0" y="0" viewBox="0 0 24 24" style="enable-background:new 0 0 512 512" xml:space="preserve" class=""><g><path fill="#000000" fill-rule="evenodd" d="M1.4 12C1.4 6.149 6.149 1.4 12 1.4c2.5 0 4.796.866 6.606 2.315l-.175-.525 1.138-.38.996 2.987a.593.593 0 0 1 .008.026l.376 1.126-1.09-.363a.602.602 0 0 1-.116-.04L16.81 5.57l.38-1.138.669.223a9.335 9.335 0 0 0-5.86-2.054C6.812 2.6 2.6 6.81 2.6 12s4.212 9.4 9.4 9.4a9.392 9.392 0 0 0 8.611-5.64.6.6 0 1 1 1.1.48A10.591 10.591 0 0 1 12 22.6C6.149 22.6 1.4 17.85 1.4 12zM9 16V8a.5.5 0 0 1 .75-.43l7 4c.34.19.34.68 0 .87l-7 4A.5.5 0 0 1 9 16z" clip-rule="evenodd" opacity="1" data-original="#000000" class=""></path></g></svg>