<svg xmlns="http://www.w3.org/2000/svg" version="1.1" xmlns:xlink="http://www.w3.org/1999/xlink" width="24" height="24" x="0" y="0" viewBox="0 0 512 512" style="enable-background:new 0 0 512 512" xml:space="preserve" class=""><g transform="matrix(2.0000000000000018,0,0,2.0000000000000018,-5.472000122070597,-247.85448455810592)"><path fill="#f4f4f4" d="M163.244 375.598H60.015c-24.715 0-44.75-20.035-44.75-44.75V227.619c0-24.715 20.035-44.75 44.75-44.75h103.229c24.715 0 44.75 20.035 44.75 44.75v103.229c0 24.715-20.035 44.75-44.75 44.75z" opacity="1" data-original="#f4f4f4" class=""></path><path fill="#70b400" d="m42.093 297.218 23.338-32.142 31.476 24.321s60.483-114.064 148.772-159.286c0 0-72.419 72.702-125.844 191.433-5 11.112-18.837 15.008-28.971 8.241z" opacity="1" data-original="#70b400" class=""></path></g></svg>