<svg xmlns="http://www.w3.org/2000/svg" version="1.1" xmlns:xlink="http://www.w3.org/1999/xlink" width="24" height="24" x="0" y="0" viewBox="0 0 512 512" style="enable-background:new 0 0 512 512" xml:space="preserve" class=""><g><path d="M155.447 315.378a6 6 0 0 0 6-6v-13.795a6 6 0 0 0-12 0v13.795a6 6 0 0 0 6 6zM155.447 281.5a6 6 0 0 0 6-6v-65.358a6 6 0 0 0-12 0V275.5a6 6 0 0 0 6 6z" fill="#000000" opacity="1" data-original="#000000" class=""></path><path d="M42.867 416.424h25.317v19.911a20.906 20.906 0 0 0 20.867 20.9h26.833V481.1a20.906 20.906 0 0 0 20.867 20.9h332.382A20.906 20.906 0 0 0 490 481.1V190.083a12.667 12.667 0 0 0-4.123-9.34L442.3 141.022V71.706a20.906 20.906 0 0 0-20.866-20.9h-25.318V30.9A20.906 20.906 0 0 0 375.249 10H42.867A20.906 20.906 0 0 0 22 30.9v364.626a20.906 20.906 0 0 0 20.867 20.898zM459.236 172.7a6 6 0 0 1-4.042 10.434h-54.873a6 6 0 0 1-6-6v-50.019a6 6 0 0 1 10.042-4.434zm-37.8-109.89a8.892 8.892 0 0 1 8.866 8.9v58.378l-34.25-31.22a12.582 12.582 0 0 0-8.5-3.292h-250.8a20.906 20.906 0 0 0-20.867 20.9v28.149a6 6 0 0 0 12 0v-28.151a8.892 8.892 0 0 1 8.867-8.9h239.57a6 6 0 0 1 6 6V178.4a16.737 16.737 0 0 0 16.737 16.737H472a6 6 0 0 1 6 6V481.1a8.893 8.893 0 0 1-8.867 8.9H136.751a8.893 8.893 0 0 1-8.867-8.9V196.623a6 6 0 0 0-12 0v248.609H89.051a8.892 8.892 0 0 1-8.867-8.9V71.706a8.892 8.892 0 0 1 8.867-8.9zM34 30.9a8.893 8.893 0 0 1 8.867-8.9h332.382a8.893 8.893 0 0 1 8.867 8.9v19.91H89.051a20.906 20.906 0 0 0-20.867 20.9v332.714H42.867a8.892 8.892 0 0 1-8.867-8.9z" fill="#000000" opacity="1" data-original="#000000" class=""></path></g></svg>