<svg xmlns="http://www.w3.org/2000/svg" version="1.1" xmlns:xlink="http://www.w3.org/1999/xlink" width="24" height="24" x="0" y="0" viewBox="0 0 16.933 16.933" style="enable-background:new 0 0 512 512" xml:space="preserve" class=""><g><path d="M1.323 3.176a.798.798 0 0 0-.795.792v7.409c0 .435.36.792.795.792h6.084V9.525h-6.35V3.968c0-.15.115-.263.266-.263h10.055c.151 0 .264.112.264.263v.264h.529v-.264a.796.796 0 0 0-.793-.792zM8.731 4.76a.8.8 0 0 0-.795.795v7.409c0 .435.36.792.795.792h3.713a1.305 1.305 0 0 1-.273-.792V11.64H8.466v-5.82h5.293v1.587h.529V5.556a.8.8 0 0 0-.795-.795zm-6.883.526a.265.265 0 0 0-.261.27v.529a.265.265 0 1 0 .53 0v-.53a.265.265 0 0 0-.269-.27zm0 1.588a.265.265 0 0 0-.261.27V8.73a.265.265 0 1 0 .53 0V7.144a.265.265 0 0 0-.269-.27zm7.409 0a.265.265 0 0 0-.262.27v.529a.265.265 0 1 0 .53 0v-.53a.265.265 0 0 0-.268-.27zm4.236 1.062a.797.797 0 0 0-.793.793v4.235c0 .435.358.792.793.792h2.117a.796.796 0 0 0 .793-.792V8.73a.796.796 0 0 0-.793-.793zm-4.236.526a.265.265 0 0 0-.262.267v1.588a.265.265 0 1 0 .53 0V8.73a.265.265 0 0 0-.268-.267zm3.973.533h2.644v3.703H13.23zm-7.158 1.587h.543c.352 0 .352.53 0 .53h-.53c-.353.017-.378-.513-.013-.53zm4.777 1.586h.53a.265.265 0 0 1 0 .53h-.53a.265.265 0 0 1 0-.53zm-6.002.53a1.984 1.984 0 0 1-.447.53h-.432a.265.265 0 1 0 0 .528H7.68a1.304 1.304 0 0 1-.274-.792v-.266z" fill="#000000" opacity="1" data-original="#000000" class=""></path></g></svg>