<svg xmlns="http://www.w3.org/2000/svg" version="1.1" xmlns:xlink="http://www.w3.org/1999/xlink" width="24" height="24" x="0" y="0" viewBox="0 0 512 512" style="enable-background:new 0 0 512 512" xml:space="preserve" class=""><g transform="matrix(2.1,0,0,2.1,-554.0087265014649,-290.33674697875983)"><path fill="#f4f4f4" d="M428.112 375.598H324.883c-24.715 0-44.75-20.035-44.75-44.75V227.619c0-24.715 20.035-44.75 44.75-44.75h103.229c24.715 0 44.75 20.035 44.75 44.75v103.229c0 24.715-20.035 44.75-44.75 44.75z" opacity="1" data-original="#f4f4f4" class=""></path><path fill="#e33100" d="M497.439 353.289c-24.296-41.752-55.336-78.235-85.088-107.819 40.056-50.069 79.11-93.183 79.11-93.183-38.177 20.285-72.094 47.411-99.7 73.557-44.107-40.345-80.734-63.498-80.734-63.498l-37.541 30.662c26.531 12.9 59.993 34.787 92.905 58.308-31.855 33.856-50.477 60.948-50.477 60.948l23.754 36.438c12.215-22.602 31.872-50.535 53.045-78.173 56.315 41.91 104.726 82.76 104.726 82.76z" opacity="1" data-original="#e33100" class=""></path></g></svg>